<svg xmlns="http://www.w3.org/2000/svg" width="1200" height="675" viewBox="0 0 1200 675">
<rect width="1200" height="675" fill="#f7f5ef"/>
<text x="70" y="85" font-family="Arial,'Noto Sans SC',sans-serif" font-size="42" font-weight="700" fill="#1f2937">主动微转子：异质性不一定是误差，也可能是功能</text>
<text x="70" y="130" font-family="Arial,'Noto Sans SC',sans-serif" font-size="24" fill="#5b6472">个体差异驱动同步与集体波传播</text>
<g fill="none" stroke="#52606d" stroke-width="5">
<circle cx="250" cy="300" r="55"/><circle cx="420" cy="390" r="48"/><circle cx="590" cy="285" r="62"/><circle cx="760" cy="390" r="52"/><circle cx="930" cy="290" r="58"/>
</g>
<g stroke="#8b5e3c" stroke-width="7" fill="none">
<path d="M210 300 q40 -55 80 0"/><path d="M385 390 q35 -45 70 0"/><path d="M545 285 q45 -65 90 0"/><path d="M720 390 q40 -50 80 0"/><path d="M885 290 q45 -60 90 0"/>
</g>
<path d="M160 500 C320 430, 430 560, 580 485 S850 420, 1040 485" fill="none" stroke="#111827" stroke-width="8"/>
<text x="755" y="535" font-family="Arial,'Noto Sans SC',sans-serif" font-size="24" fill="#1f2937">集体波</text>
<text x="70" y="600" font-family="Arial,'Noto Sans SC',sans-serif" font-size="24" fill="#374151">研究问题：哪些系统中 disorder 是性能上限，哪些系统中它能成为可设计资源？</text>
</svg>
